<mxfile host="app.diagrams.net" modified="2022-08-16T02:07:50.185Z" agent="5.0 (Windows NT 10.0; Win64; x64) AppleWebKit/537.36 (KHTML, like Gecko) Chrome/104.0.0.0 Safari/537.36" etag="4k4h-5ZylWJyb0J-G0Ku" version="17.1.0" type="github">
  <diagram id="jdvvv3JZ9ydkouDmrhEv" name="Page-1">
    <mxGraphModel dx="1422" dy="737" grid="0" gridSize="10" guides="1" tooltips="1" connect="1" arrows="1" fold="1" page="1" pageScale="1" pageWidth="1169" pageHeight="827" math="0" shadow="0">
      <root>
        <mxCell id="0" />
        <mxCell id="1" parent="0" />
      </root>
    </mxGraphModel>
  </diagram>
</mxfile>
